<?xml version="1.0" encoding="iso-8859-1"?>
<!-- Generator: Adobe Illustrator 19.0.0, SVG Export Plug-In . SVG Version: 6.00 Build 0)  -->
<svg version="1.1" id="Capa_1" xmlns="http://www.w3.org/2000/svg" xmlns:xlink="http://www.w3.org/1999/xlink" x="0px" y="0px"
	 viewBox="0 0 496 496" style="enable-background:new 0 0 496 496;" xml:space="preserve">
<rect x="88" y="88" style="fill:#FFA64D;" width="320" height="320"/>
<g>
	<path style="fill:#333333;" d="M416,80H80v128H0v16h80v192h336V224h80v-16h-80V80z M400,176h-80V96h80V176z M304,144h-16v-16h16
		V144z M192,128h32v16h-32V128z M176,96v80H96V96H176z M96,192h96v-32h48v-48h-48V96h112v16h-32v48h32v32h96v16h-16h-80h-32v-32h-48
		v32h-32h-32h-48H96V192z M368,288v16h-48v-80h48v16h-32v48H368z M208,224h32h16v16h-48V224z M240,208v-16h16v16H240z M128,224h16
		v16h-16V224z M96,320h80v80H96V320z M144,304h-16v-16h16V304z M400,400H192v-96h-32v-32h-48v32H96v-80h16v32h48v-32h32v32h80v-32
		h32v96h80v-48h-32v-16h32v-32h16V400z"/>
	<path style="fill:#333333;" d="M160,112h-48v48h48V112z M144,144h-16v-16h16V144z"/>
	<path style="fill:#333333;" d="M112,336v48h48v-48H112z M144,368h-16v-16h16V368z"/>
	<path style="fill:#333333;" d="M384,160v-48h-48v48H384z M352,128h16v16h-16V128z"/>
	<path style="fill:#333333;" d="M208,320h32v16h-32v48h80V272h-80V320z M224,288h48v80h-48v-16h32v-48h-32V288z"/>
	<path style="fill:#333333;" d="M304,384h80v-48h-80V384z M320,352h48v16h-48V352z"/>
	<polygon style="fill:#333333;" points="16,16 136,16 136,0 0,0 0,136 16,136 	"/>
	<polygon style="fill:#333333;" points="48,136 48,48 136,48 136,32 32,32 32,136 	"/>
	<polygon style="fill:#333333;" points="48,360 32,360 32,464 136,464 136,448 48,448 	"/>
	<polygon style="fill:#333333;" points="16,360 0,360 0,496 136,496 136,480 16,480 	"/>
	<polygon style="fill:#333333;" points="448,136 464,136 464,32 360,32 360,48 448,48 	"/>
	<polygon style="fill:#333333;" points="360,0 360,16 480,16 480,136 496,136 496,0 	"/>
	<polygon style="fill:#333333;" points="480,480 360,480 360,496 496,496 496,360 480,360 	"/>
	<polygon style="fill:#333333;" points="448,360 448,448 360,448 360,464 464,464 464,360 	"/>
</g>
<g>
</g>
<g>
</g>
<g>
</g>
<g>
</g>
<g>
</g>
<g>
</g>
<g>
</g>
<g>
</g>
<g>
</g>
<g>
</g>
<g>
</g>
<g>
</g>
<g>
</g>
<g>
</g>
<g>
</g>
</svg>
